<?xml version="1.0" encoding="UTF-8"?>
<svg width="132px" height="67px" viewBox="0 0 132 67" version="1.1" xmlns="http://www.w3.org/2000/svg" xmlns:xlink="http://www.w3.org/1999/xlink">
    <title>Group 26</title>
    <defs>
        <polygon id="path-1" points="0 66.15175 131.8408 66.15175 131.8408 0 0 0"></polygon>
    </defs>
    <g id="LandingPage-SpreadGreg" stroke="none" stroke-width="1" fill="none" fill-rule="evenodd">
        <g id="Desktop-HD" transform="translate(-654.000000, -87.000000)">
            <g id="Group-26" transform="translate(654.000000, 87.000000)">
                <polygon id="Fill-1" fill="#2F2F4F" points="0 66.15175 131.8408 66.15175 131.8408 0 0 0"></polygon>
                <g id="Group-25" transform="translate(0.000000, 0.000000)">
                    <path d="M32.401075,20.019475 C31.906875,19.546975 31.340225,19.158825 30.699725,18.853975 C30.059225,18.549825 29.402975,18.282075 28.730975,18.050725 L26.021625,17.105725 C25.623325,16.979725 25.307975,16.827825 25.076975,16.648975 C24.845975,16.470825 24.667475,16.286725 24.541825,16.097725 C24.415475,15.908725 24.331125,15.724975 24.289475,15.546475 C24.247125,15.368325 24.226825,15.215725 24.226825,15.089725 C24.226825,14.522725 24.431225,14.055825 24.840375,13.687975 C25.249875,13.320825 25.822125,13.136725 26.557825,13.136725 C27.292475,13.136725 27.896225,13.341475 28.368725,13.750975 C28.841575,14.160475 29.077475,14.722575 29.077475,15.436225 L29.077475,16.066225 L33.582325,16.066225 L33.582325,15.593725 C33.582325,14.628075 33.413625,13.761825 33.077975,12.995325 C32.742325,12.228475 32.263525,11.577475 31.645075,11.042325 C31.024875,10.506475 30.284625,10.092075 29.423975,9.797725 C28.562625,9.504075 27.607825,9.356725 26.557825,9.356725 C25.486475,9.356725 24.530975,9.519825 23.691325,9.845325 C22.850625,10.170825 22.142225,10.611825 21.564725,11.167975 C20.690775,12.010425 20.129725,13.056225 19.881575,14.306775 C19.825925,14.588175 19.796875,14.874825 19.788825,15.161475 C19.743325,16.785825 20.146525,18.090625 20.998075,19.074475 C21.806225,20.009325 22.998325,20.759725 24.573325,21.326725 L27.817475,22.492225 C28.489475,22.723925 28.946225,23.043825 29.187375,23.453325 C29.428875,23.862475 29.549975,24.287725 29.549975,24.728725 C29.549975,25.358725 29.308475,25.878475 28.825825,26.287975 C28.342475,26.697475 27.628825,26.902225 26.683475,26.902225 C25.801825,26.902225 25.108475,26.708325 24.604825,26.319475 C24.100825,25.931325 23.848475,25.358725 23.848475,24.602725 L23.848475,23.689225 L19.343625,23.689225 L19.343625,24.445575 C19.343625,25.411225 19.527725,26.277825 19.895575,27.043975 C20.262375,27.810825 20.777225,28.461475 21.439075,28.996975 C22.099875,29.532825 22.887375,29.947225 23.801575,30.241225 C24.714725,30.535225 25.717475,30.682225 26.809125,30.682225 C27.901125,30.682225 28.893725,30.525075 29.786225,30.209725 C30.678375,29.894725 31.439975,29.448825 32.070325,28.870975 C32.699975,28.293825 33.182975,27.610975 33.518625,26.823475 C33.854975,26.035975 34.023325,25.169725 34.023325,24.225075 C34.023325,23.259075 33.875625,22.434475 33.582325,21.751975 C33.287625,21.069825 32.893875,20.492325 32.401075,20.019475" id="Fill-2" fill="#FFFFFF"></path>
                    <path d="M46.01485,18.680655 C45.48985,19.206005 44.75485,19.468155 43.8095,19.468155 L41.22685,19.468155 L41.22685,13.672155 L43.8095,13.672155 C44.75485,13.672155 45.48985,13.929755 46.01485,14.444255 C46.53985,14.958755 46.80235,15.656655 46.80235,16.539005 C46.80235,17.442005 46.53985,18.156005 46.01485,18.680655 M49.4172,11.530155 C48.7655,10.942855 47.99935,10.485755 47.11735,10.159905 C46.2357,9.834755 45.269,9.672005 44.219,9.672005 L36.65935,9.672005 L36.65935,30.367505 L41.22685,30.367505 L41.22685,23.469005 L44.219,23.469005 C45.269,23.469005 46.2357,23.306605 47.11735,22.980405 C47.99935,22.654905 48.7655,22.188005 49.4172,21.578655 C50.06785,20.970005 50.57185,20.229755 50.9292,19.358255 C51.2862,18.486755 51.46435,17.515155 51.46435,16.444155 C51.46435,15.436155 51.2862,14.512505 50.9292,13.672155 C50.57185,12.832505 50.06785,12.118505 49.4172,11.530155" id="Fill-4" fill="#FFFFFF"></path>
                    <path d="M58.52938,13.672295 L61.11273,13.672295 C62.05738,13.672295 62.79238,13.913795 63.31808,14.396795 C63.84238,14.880145 64.10558,15.520295 64.10558,16.318295 C64.10558,17.158295 63.84238,17.820145 63.31808,18.302445 C62.79238,18.786145 62.05738,19.027295 61.11273,19.027295 L58.52938,19.027295 L58.52938,13.672295 Z M58.52938,23.027445 L61.23838,23.027445 L63.94738,30.367295 L68.95623,30.367295 L65.71173,21.956795 C66.65673,21.389795 67.40188,20.623295 67.94788,19.657295 C68.49423,18.691645 68.76688,17.546795 68.76688,16.223795 C68.76688,15.237145 68.58838,14.339045 68.23173,13.530545 C67.87403,12.722395 67.37563,12.034295 66.73513,11.467295 C66.09463,10.900295 65.33863,10.459295 64.46713,10.144295 C63.59563,9.829295 62.64538,9.671795 61.61638,9.671795 L53.96223,9.671795 L53.96223,30.367295 L58.52938,30.367295 L58.52938,23.027445 Z" id="Fill-6" fill="#FFFFFF"></path>
                    <path d="M93.50649,23.21662 L95.52249,15.21597 L97.56964,23.21662 L93.50649,23.21662 Z M93.22264,9.67197 L87.23799,30.36747 L91.71064,30.36747 L92.52964,27.09112 L98.54579,27.09112 L99.39699,30.36747 L104.09049,30.36747 L98.13664,9.67197 L93.22264,9.67197 Z" id="Fill-8" fill="#FFFFFF"></path>
                    <path d="M116.90728,23.090865 C116.90728,24.098865 116.64478,24.881465 116.11978,25.437615 C115.59478,25.994115 114.82863,26.272365 113.82098,26.272365 L110.98528,26.272365 L110.98528,13.766515 L113.82098,13.766515 C114.82863,13.766515 115.59478,14.045115 116.11978,14.601615 C116.64478,15.158115 116.90728,15.940015 116.90728,16.948365 L116.90728,23.090865 Z M119.49063,11.593015 C118.16798,10.312715 116.27763,9.671865 113.82098,9.671865 L106.41813,9.671865 L106.41813,30.367365 L113.82098,30.367365 C116.27763,30.367365 118.16798,29.726865 119.49063,28.445865 C120.81328,27.165215 121.47513,25.411365 121.47513,23.185365 L121.47513,16.853865 C121.47513,14.627865 120.81328,12.874715 119.49063,11.593015 L119.49063,11.593015 Z" id="Fill-10" fill="#FFFFFF"></path>
                    <path d="M68.606055,37.28046 C67.986205,36.70331 67.235455,36.25671 66.353455,35.94171 C65.471805,35.62671 64.494955,35.46921 63.423605,35.46921 C61.008605,35.46921 59.150455,36.09921 57.848455,37.35956 C56.546105,38.61921 55.895455,40.33106 55.895455,42.49406 L55.895455,49.77056 C55.895455,50.84121 56.073605,51.81281 56.431305,52.68396 C56.787955,53.55581 57.297205,54.29571 57.959055,54.90471 C58.620205,55.51406 59.402105,55.98131 60.305805,56.30646 C61.208105,56.63196 62.216455,56.79471 63.329455,56.79471 C64.400455,56.79471 65.382205,56.63196 66.275055,56.30646 C67.167205,55.98131 67.928455,55.51406 68.558105,54.90471 C69.188455,54.29571 69.676705,53.55581 70.023205,52.68396 C70.369705,51.81281 70.543305,50.84121 70.543305,49.77056 L70.543305,45.80156 L63.612955,45.80156 L63.612955,49.32921 L66.290805,49.32921 L66.290805,49.67571 C66.290805,50.62071 66.032855,51.36096 65.519055,51.89646 C65.004205,52.43196 64.263955,52.70006 63.297955,52.70006 C62.415955,52.70006 61.722955,52.43196 61.219305,51.89646 C60.715305,51.36096 60.462955,50.62071 60.462955,49.67571 L60.462955,42.58821 C60.462955,41.64321 60.720205,40.90331 61.234705,40.36746 C61.748855,39.83196 62.457955,39.56421 63.360955,39.56421 C64.284955,39.56421 64.977605,39.80606 65.440305,40.28906 C65.901605,40.77241 66.132955,41.43356 66.132955,42.27356 L66.132955,42.71421 L70.543305,42.71421 L70.543305,42.17871 C70.543305,41.15041 70.374605,40.22081 70.038955,39.39096 C69.702605,38.56181 69.224855,37.85831 68.606055,37.28046" id="Fill-12" fill="#FFFFFF"></path>
                    <path d="M82.770835,44.41514 C82.245835,44.89884 81.510835,45.13964 80.565485,45.13964 L77.982835,45.13964 L77.982835,39.78499 L80.565485,39.78499 C81.510835,39.78499 82.245835,40.02649 82.770835,40.50949 C83.295835,40.99284 83.558335,41.63299 83.558335,42.43064 C83.558335,43.27064 83.295835,43.93249 82.770835,44.41514 M87.401335,45.76964 C87.946985,44.80399 88.220335,43.65949 88.220335,42.33649 C88.220335,41.34949 88.042185,40.45174 87.685185,39.64289 C87.327835,38.83509 86.828735,38.14699 86.188935,37.57999 C85.547735,37.01299 84.791385,36.57199 83.920585,36.25664 C83.049085,35.94164 82.098835,35.78449 81.070185,35.78449 L73.415335,35.78449 L73.415335,56.47999 L77.982835,56.47999 L77.982835,49.14014 L80.692185,49.14014 L83.401185,56.47999 L88.408985,56.47999 L85.164835,48.06914 C86.110185,47.50214 86.855335,46.73599 87.401335,45.76964" id="Fill-14" fill="#FFFFFF"></path>
                    <path d="M119.33334,37.28046 C118.71349,36.70331 117.96274,36.25671 117.08074,35.94171 C116.19909,35.62671 115.22224,35.46921 114.15089,35.46921 C111.73589,35.46921 109.87774,36.09921 108.57574,37.35956 C107.27339,38.61921 106.62274,40.33106 106.62274,42.49406 L106.62274,49.77056 C106.62274,50.84121 106.80089,51.81281 107.15859,52.68396 C107.51524,53.55581 108.02449,54.29571 108.68634,54.90471 C109.34749,55.51406 110.12939,55.98131 111.03309,56.30646 C111.93539,56.63196 112.94374,56.79471 114.05674,56.79471 C115.12774,56.79471 116.10949,56.63196 117.00234,56.30646 C117.89449,55.98131 118.65574,55.51406 119.28539,54.90471 C119.91574,54.29571 120.40399,53.55581 120.75049,52.68396 C121.09699,51.81281 121.27059,50.84121 121.27059,49.77056 L121.27059,45.80156 L114.34024,45.80156 L114.34024,49.32921 L117.01809,49.32921 L117.01809,49.67571 C117.01809,50.62071 116.76014,51.36096 116.24634,51.89646 C115.73149,52.43196 114.99124,52.70006 114.02524,52.70006 C113.14324,52.70006 112.45024,52.43196 111.94659,51.89646 C111.44259,51.36096 111.19024,50.62071 111.19024,49.67571 L111.19024,42.58821 C111.19024,41.64321 111.44749,40.90331 111.96199,40.36746 C112.47614,39.83196 113.18524,39.56421 114.08824,39.56421 C115.01224,39.56421 115.70489,39.80606 116.16759,40.28906 C116.62889,40.77241 116.86024,41.43356 116.86024,42.27356 L116.86024,42.71421 L121.27059,42.71421 L121.27059,42.17871 C121.27059,41.15041 121.10189,40.22081 120.76624,39.39096 C120.42989,38.56181 119.95214,37.85831 119.33334,37.28046" id="Fill-16" fill="#FFFFFF"></path>
                    <mask id="mask-2" fill="white">
                        <use xlink:href="#path-1"></use>
                    </mask>
                    <g id="Clip-19"></g>
                    <polygon id="Fill-18" fill="#FFFFFF" mask="url(#mask-2)" points="72.99005 30.3674 83.71195 30.3674 83.71195 26.2724 72.99005 26.2724"></polygon>
                    <polygon id="Fill-20" fill="#FFFFFF" mask="url(#mask-2)" points="72.99005 22.06715 82.50375 22.06715 82.50375 17.97215 72.99005 17.97215"></polygon>
                    <polygon id="Fill-21" fill="#FFFFFF" mask="url(#mask-2)" points="72.99005 13.76655 83.71195 13.76655 83.71195 9.6719 72.99005 9.6719"></polygon>
                    <polygon id="Fill-22" fill="#FFFFFF" mask="url(#mask-2)" points="92.65095 56.4795 103.37285 56.4795 103.37285 52.3845 92.65095 52.3845"></polygon>
                    <polygon id="Fill-23" fill="#FFFFFF" mask="url(#mask-2)" points="92.65095 48.17925 102.16465 48.17925 102.16465 44.08425 92.65095 44.08425"></polygon>
                    <polygon id="Fill-24" fill="#FFFFFF" mask="url(#mask-2)" points="92.65095 39.879 103.37285 39.879 103.37285 35.78435 92.65095 35.78435"></polygon>
                </g>
            </g>
        </g>
    </g>
</svg>