<?xml version="1.0" encoding="UTF-8"?>
<svg width="21px" height="21px" viewBox="0 0 21 21" version="1.1" xmlns="http://www.w3.org/2000/svg" xmlns:xlink="http://www.w3.org/1999/xlink">
    <title>LinedIN</title>
    <defs>
        <path d="M19.446474,5.68434189e-14 C20.3026986,5.68434189e-14 21,0.677882064 21,1.51416708 L21,1.51416708 L21,19.4846978 C21,20.3209312 20.3026986,21 19.446474,21 L19.446474,21 L1.54893375,21 C0.694411888,21 6.00408612e-13,20.3209312 6.00408612e-13,19.4846978 L6.00408612e-13,19.4846978 L6.00408612e-13,1.51416708 C6.00408612e-13,0.677882064 0.694411888,5.68434189e-14 1.54893375,5.68434189e-14 L1.54893375,5.68434189e-14 Z M6.22942881,7.87272973 L3.1115927,7.87272973 L3.1115927,17.8942187 L6.22942881,17.8942187 L6.22942881,7.87272973 Z M14.1587684,7.62403194 C12.6433737,7.62403194 11.6270907,8.45489926 11.2117748,9.24273464 L11.2117748,9.24273464 L11.1691029,9.24273464 L11.1691029,7.87272973 L8.18341036,7.87272973 L8.18341036,17.8942187 L11.2943839,17.8942187 L11.2943839,12.9375995 C11.2943839,11.6302334 11.5416952,10.3635774 13.1624024,10.3635774 C14.7608707,10.3635774 14.7808393,11.8586536 14.7808393,13.020774 L14.7808393,17.8942187 L17.8952699,17.8942187 L17.8952699,12.3981007 C17.8952699,9.69905897 17.3124654,7.62403194 14.1587684,7.62403194 Z M4.67136213,2.8910344 C3.67102305,2.8910344 2.86433294,3.70023096 2.86433294,4.69713759 C2.86433294,5.69435381 3.67102305,6.50355037 4.67136213,6.50355037 C5.66772812,6.50355037 6.47663696,5.69435381 6.47663696,4.69713759 C6.47663696,3.70023096 5.66772812,2.8910344 4.67136213,2.8910344 Z" id="path-1"></path>
    </defs>
    <g id="LandingPage-SpreadGreg" stroke="none" stroke-width="1" fill="none" fill-rule="evenodd">
        <g id="Desktop-HD" transform="translate(-605.000000, -2077.000000)">
            <g id="Group-4" transform="translate(149.000000, 2044.000000)">
                <g id="LinedIN" transform="translate(456.000000, 33.000000)">
                    <g transform="translate(0.000000, 0.000000)" id="Rectangle-Copy-6">
                        <g transform="translate(0.000000, 0.000000)">
                            <mask id="mask-2" fill="white">
                                <use xlink:href="#path-1"></use>
                            </mask>
                            <use id="Mask" fill="#22356D" xlink:href="#path-1"></use>
                            <rect fill="#4EFFD2" mask="url(#mask-2)" x="-4.5" y="-4.5" width="30" height="30"></rect>
                        </g>
                    </g>
                </g>
            </g>
        </g>
    </g>
</svg>