<?xml version="1.0" encoding="UTF-8"?>
<svg width="26px" height="21px" viewBox="0 0 26 21" version="1.1" xmlns="http://www.w3.org/2000/svg" xmlns:xlink="http://www.w3.org/1999/xlink">
    <title>Twitter</title>
    <defs>
        <path d="M1.5266085,0.900941646 C1.5266085,0.900941646 5.97130124,6.30570003 12.7423012,6.63076467 C12.7423012,6.63076467 11.3602913,3.04611279 15.4916327,0.588969004 C15.4916327,0.588969004 18.8480824,-1.33970526 22.0873517,1.78321433 C22.0873517,1.78321433 23.5483523,1.71392255 25.3093214,0.447192286 C25.3093214,0.447192286 25.5684891,1.61269909 23.2722114,3.48740879 C23.2722114,3.48740879 24.5497709,3.38618533 26,2.45697305 C26,2.45697305 25.7238591,4.06154064 23.358383,5.22704744 C23.358383,5.22704744 24.0781119,17.92245 11.4138221,20.701146 C11.4138221,20.701146 4.7165903,22.1795833 0,18.5598066 C0,18.5598066 5.0031762,19.0694364 7.66111355,16.3418312 C7.66111355,16.3418312 4.32588036,16.6477368 2.68404997,12.7983712 C2.68404997,12.7983712 4.35166656,13.0787315 5.02928881,12.5435563 C5.02928881,12.5435563 1.51126734,12.5687823 0.72952106,7.41947749 C0.72952106,7.41947749 2.16277698,8.13315083 3.10087251,8.00574338 C3.10087251,8.00574338 -0.881627017,5.59937098 1.5266085,0.900941646" id="path-1"></path>
    </defs>
    <g id="LandingPage-SpreadGreg" stroke="none" stroke-width="1" fill="none" fill-rule="evenodd">
        <g id="Desktop-HD" transform="translate(-516.000000, -2077.000000)">
            <g id="Group-4" transform="translate(149.000000, 2044.000000)">
                <g id="Twitter" transform="translate(367.000000, 33.000000)">
                    <mask id="mask-2" fill="white">
                        <use xlink:href="#path-1"></use>
                    </mask>
                    <use id="Mask" fill="#22356D" xlink:href="#path-1"></use>
                    <rect id="Rectangle" fill="#4EFFD2" mask="url(#mask-2)" x="-2.29411765" y="-4.5" width="30.5882353" height="30"></rect>
                </g>
            </g>
        </g>
    </g>
</svg>